<svg preserveAspectRatio="none" width="100%" height="100%" overflow="visible" style="display: block;" viewBox="0 0 110 110" fill="none" xmlns="http://www.w3.org/2000/svg">
<g id="09.whatsapp">
<path id="background" d="M55 110C85.3757 110 110 85.3757 110 55C110 24.6243 85.3757 0 55 0C24.6243 0 0 24.6243 0 55C0 85.3757 24.6243 110 55 110Z" fill="var(--fill-0, #29A71A)"/>
<g id="icon">
<path id="Vector" d="M79.25 30.75C73.5277 24.9706 65.9285 21.4263 57.8232 20.7564C49.7178 20.0865 41.6398 22.3351 35.0463 27.0965C28.4528 31.858 23.7778 38.8189 21.8647 46.7237C19.9515 54.6285 20.926 62.9567 24.6125 70.2063L20.9937 87.775C20.9562 87.9499 20.9551 88.1306 20.9906 88.3059C21.0261 88.4812 21.0974 88.6473 21.2 88.7938C21.3503 89.0161 21.5649 89.1873 21.815 89.2844C22.0652 89.3816 22.339 89.4001 22.6 89.3375L39.8187 85.2563C47.0479 88.8494 55.3174 89.7613 63.1557 87.8296C70.9941 85.898 77.8929 81.2481 82.6247 74.7073C87.3565 68.1665 89.6143 60.1591 88.9963 52.11C88.3783 44.0608 84.9247 36.4919 79.25 30.75ZM73.8813 73.6C69.922 77.5481 64.8237 80.1543 59.3048 81.0513C53.7858 81.9484 48.1246 81.091 43.1187 78.6L40.7188 77.4125L30.1625 79.9125L30.1937 79.7813L32.3813 69.1563L31.2062 66.8375C28.6485 61.8142 27.7462 56.1103 28.6287 50.5428C29.5111 44.9753 32.133 39.8299 36.1188 35.8438C41.1269 30.8372 47.9185 28.0246 55 28.0246C62.0815 28.0246 68.8731 30.8372 73.8813 35.8438C73.9239 35.8927 73.9698 35.9386 74.0188 35.9813C78.9648 41.0008 81.726 47.7721 81.7002 54.819C81.6745 61.8659 78.8639 68.6168 73.8813 73.6Z" fill="var(--fill-0, white)"/>
<path id="Vector_2" d="M72.9437 65.8063C71.65 67.8438 69.6062 70.3375 67.0375 70.9563C62.5375 72.0438 55.6312 70.9938 47.0375 62.9813L46.9312 62.8875C39.375 55.8813 37.4125 50.05 37.8875 45.425C38.15 42.8 40.3375 40.425 42.1812 38.875C42.4727 38.6262 42.8184 38.4491 43.1906 38.3578C43.5628 38.2665 43.9512 38.2635 44.3247 38.3492C44.6982 38.4348 45.0465 38.6067 45.3418 38.851C45.637 39.0953 45.871 39.4053 46.025 39.7563L48.8062 46.0063C48.987 46.4115 49.054 46.8583 49 47.2987C48.9461 47.7392 48.7732 48.1566 48.5 48.5063L47.0937 50.3313C46.792 50.7081 46.6099 51.1666 46.5709 51.6478C46.532 52.1289 46.6379 52.6108 46.875 53.0313C47.6625 54.4125 49.55 56.4438 51.6437 58.325C53.9937 60.45 56.6 62.3938 58.25 63.0563C58.6915 63.2366 59.1769 63.2806 59.6437 63.1826C60.1104 63.0846 60.5371 62.849 60.8687 62.5063L62.5 60.8625C62.8148 60.5521 63.2062 60.3308 63.6344 60.221C64.0626 60.1112 64.5122 60.1169 64.9375 60.2375L71.5437 62.1125C71.9082 62.2243 72.2422 62.4179 72.5203 62.6786C72.7984 62.9393 73.0132 63.2601 73.1483 63.6165C73.2834 63.973 73.3352 64.3556 73.2997 64.7351C73.2643 65.1146 73.1425 65.481 72.9437 65.8063Z" fill="var(--fill-0, white)"/>
</g>
</g>
</svg>
