<svg preserveAspectRatio="none" width="100%" height="100%" overflow="visible" style="display: block;" viewBox="0 0 88 76.7831" fill="none" xmlns="http://www.w3.org/2000/svg">
<g id="Group">
<path id="Vector" d="M44 29.9062C52.2584 29.9062 58.9531 23.2115 58.9531 14.9531C58.9531 6.69474 52.2584 0 44 0C35.7416 0 29.0469 6.69474 29.0469 14.9531C29.0469 23.2115 35.7416 29.9062 44 29.9062Z" fill="var(--fill-0, #F9CD9D)"/>
<path id="Vector_2" d="M74.25 29.9061C79.4708 29.9061 83.7031 25.6738 83.7031 20.453C83.7031 15.2321 79.4708 10.9998 74.25 10.9998C69.0292 10.9998 64.7969 15.2321 64.7969 20.453C64.7969 25.6738 69.0292 29.9061 74.25 29.9061Z" fill="var(--fill-0, #F9CD9D)"/>
<path id="Vector_3" d="M13.75 29.9061C18.9708 29.9061 23.2031 25.6738 23.2031 20.453C23.2031 15.2321 18.9708 10.9998 13.75 10.9998C8.52918 10.9998 4.29688 15.2321 4.29688 20.453C4.29688 25.6738 8.52918 29.9061 13.75 29.9061Z" fill="var(--fill-0, #F9CD9D)"/>
<path id="Vector_4" d="M23.0639 38.3952C19.3428 35.3464 15.9729 35.75 11.6703 35.75C5.23531 35.75 0 40.9544 0 47.3498V66.1203C0 68.8978 2.26703 71.1563 5.05484 71.1563C17.0906 71.1563 15.6406 71.374 15.6406 70.6372C15.6406 57.3365 14.0652 47.5824 23.0639 38.3952Z" fill="var(--fill-0, #F9CD9D)"/>
<path id="Vector_5" d="M48.0923 35.8186C40.5773 35.1917 34.0452 35.8258 28.4109 40.4764C18.9824 48.0286 20.7969 58.1972 20.7969 70.637C20.7969 73.9282 23.4747 76.6561 26.8159 76.6561C63.0957 76.6561 64.5396 77.8264 66.6909 73.0622C67.3965 71.451 67.2031 71.963 67.2031 56.5501C67.2031 44.3082 56.6031 35.8186 48.0923 35.8186Z" fill="var(--fill-0, #F9CD9D)"/>
<path id="Vector_6" d="M76.3297 35.7498C72.0036 35.7498 68.6522 35.3504 64.9361 38.395C73.8676 47.514 72.3594 56.6026 72.3594 70.637C72.3594 71.3785 71.1557 71.1561 82.7647 71.1561C85.6522 71.1561 88 68.8169 88 65.9414V47.3497C88 40.9542 82.7647 35.7498 76.3297 35.7498Z" fill="var(--fill-0, #F9CD9D)"/>
</g>
</svg>
