<svg preserveAspectRatio="none" width="100%" height="100%" overflow="visible" style="display: block;" viewBox="0 0 101.624 84.74" fill="none" xmlns="http://www.w3.org/2000/svg">
<g id="Group">
<g id="Group_2">
<path id="Vector" d="M80.879 17.1317C85.5117 17.1317 89.262 13.3633 89.262 8.70833C89.262 4.05333 85.5117 0.285 80.879 0.285C76.2462 0.285 72.4959 4.05333 72.4959 8.70833C72.4959 13.3633 76.2462 17.1317 80.879 17.1317Z" fill="var(--fill-0, #F9CD9D)"/>
<g id="Group_3">
<path id="Vector_2" d="M85.8899 84.74C87.9383 84.74 89.6086 83.0617 89.6086 81.0033V57.2217H82.1395V81.0033C82.1395 83.0617 83.8099 84.74 85.8899 84.74Z" fill="var(--fill-0, #F9CD9D)"/>
<path id="Vector_3" d="M76.0256 84.74C78.0741 84.74 79.7444 83.0617 79.7444 81.0033V57.2217H72.2753V81.0033C72.2753 83.0617 73.9456 84.74 76.0256 84.74Z" fill="var(--fill-0, #F9CD9D)"/>
</g>
</g>
<path id="Vector_4" d="M49.4583 50.73C45.645 50.73 42.5565 47.6267 42.5565 43.795C42.5565 39.9633 45.645 36.86 49.4583 36.86C53.2717 36.86 56.3602 39.9633 56.3602 43.795C56.3602 47.595 53.2717 50.73 49.4583 50.73Z" fill="var(--fill-0, #F9CD9D)"/>
<path id="Vector_5" d="M62.0014 41.1033C62.7893 38.4117 63.388 35.9417 64.2074 32.965C64.9008 30.5267 65.7202 28.215 66.382 26.0617C67.7056 21.6283 71.3929 18.7467 75.805 18.7467H86.0789C90.5541 18.7467 94.2729 21.6283 95.502 26.0617C96.2268 28.69 97.1408 31.5083 98.0862 34.485C99.2838 38.2533 100.544 42.1483 101.521 45.8533C101.931 47.405 101.08 49.02 99.6305 49.5267C99.2838 49.6533 98.9371 49.7167 98.5905 49.7167C97.1723 49.7167 95.9432 48.7983 95.5965 47.4367L90.8693 31.7933L90.2074 29.26C90.0814 28.785 89.6717 28.4683 89.1989 28.4683L88.9468 28.5L88.8838 28.5317C88.348 28.69 88.0329 29.2283 88.159 29.7667C88.5056 31.35 89.2935 34.8017 90.239 38.8233C91.7832 45.5367 93.7371 53.8967 94.588 57.9183C94.6511 58.2667 94.588 58.6467 94.3674 58.9C94.1783 59.1533 93.8632 59.28 93.548 59.28H68.3044C67.9893 59.28 67.7056 59.1533 67.485 58.9C67.2644 58.615 67.1699 58.2667 67.2644 57.9183C68.1153 53.8967 70.0377 45.5367 71.6135 38.855C72.559 34.8017 73.3468 31.35 73.6935 29.7667C73.8196 29.2283 73.5044 28.69 72.9686 28.5317L72.7165 28.5H72.6535C72.1808 28.5 71.7396 28.8167 71.645 29.2917L70.9832 31.825L67.2014 43.7317C66.6971 45.2833 65.0268 46.1067 63.4826 45.5683C62.0329 45.03 61.2765 43.4467 61.7493 41.99C61.8438 41.6417 61.9383 41.3567 62.0014 41.1033Z" fill="var(--fill-0, #F9CD9D)"/>
<g id="Group_4">
<path id="Vector_6" d="M18.0377 16.8467C13.4365 16.8467 9.65471 13.0783 9.65471 8.42333C9.65471 3.76833 13.4365 0 18.0377 0C22.639 0 26.4208 3.76833 26.4208 8.42333C26.4208 13.0783 22.6705 16.8467 18.0377 16.8467Z" fill="var(--fill-0, #F9CD9D)"/>
<path id="Vector_7" d="M34.4571 28.3733C33.228 23.0533 29.6668 19.38 24.2147 19.38H11.9238C6.47168 19.38 1.90198 23.56 1.46077 29.0383L0.0110745 46.6767C-0.146501 48.545 1.39774 50.1917 3.35168 50.0333C4.89592 49.9067 6.06198 48.5767 6.18804 47.025L7.48017 30.7483C7.5432 30.2733 7.73229 29.1967 8.61471 29.1967C8.92986 29.1967 9.40259 29.3233 9.40259 30.495V81.0033C9.40259 83.0617 11.0729 84.74 13.1214 84.74C15.1699 84.74 16.8402 83.0617 16.8402 81.0033V52.3767C16.9032 52.3133 19.2038 52.3133 19.2353 52.3767V81.0033C19.2353 83.0617 20.9056 84.74 22.9541 84.74C25.0026 84.74 26.6729 83.0617 26.6729 81.0033V30.4633C26.6729 29.2917 27.1456 29.165 27.4608 29.165C28.3747 29.165 28.5323 30.4317 28.6899 30.875L31.1796 43.225C31.5262 44.745 32.8499 45.885 34.3941 45.79C36.348 45.6633 37.6717 43.8267 37.262 41.99L34.4571 28.3733Z" fill="var(--fill-0, #F9CD9D)"/>
</g>
<path id="Vector_8" d="M62.5056 46.3283C61.2765 46.0433 60.0474 46.74 59.4802 47.88C57.1165 52.44 52.0426 52.44 51.9165 52.44C51.4438 52.5033 47.725 52.5033 47.0002 52.44C46.8741 52.4083 41.8002 52.44 39.4365 47.88C38.8693 46.7717 37.6402 46.0433 36.4111 46.3283C34.6777 46.7083 33.8268 48.5767 34.5517 50.1283C35.8438 52.7883 38.1129 55.955 42.6196 57.1267V81.6367C42.6196 83.0933 43.5965 84.3917 45.0147 84.6767C46.9056 85.0567 48.6074 83.6 48.6074 81.7633V68.5267H50.3723V81.7633C50.4038 83.41 51.7274 84.74 53.3662 84.74C55.005 84.74 56.3602 83.41 56.3602 81.7633C56.3917 81.7633 56.3602 59.6283 56.3602 59.6283C56.3602 59.5967 56.3602 59.5333 56.3602 59.4067V57.095C60.8668 55.9233 63.1359 52.7883 64.428 50.0967C65.1214 48.5767 64.239 46.7083 62.5056 46.3283Z" fill="var(--fill-0, #F9CD9D)"/>
</g>
</svg>
