<svg preserveAspectRatio="none" width="100%" height="100%" overflow="visible" style="display: block;" viewBox="0 0 18.75 17.5003" fill="none" xmlns="http://www.w3.org/2000/svg">
<g id="Union">
<path d="M12.4724 0.80897C12.5739 0.479056 12.3887 0.129316 12.0588 0.0278043C11.7289 -0.0737077 11.3792 0.111449 11.2777 0.441362L6.27765 16.6914C6.17614 17.0213 6.3613 17.371 6.69121 17.4725C7.02112 17.574 7.37086 17.3889 7.47238 17.059L12.4724 0.80897Z" fill="var(--fill-0, white)"/>
<path d="M5.44194 3.93321C5.68602 4.17729 5.68602 4.57302 5.44194 4.81709L1.50888 8.75015L5.44194 12.6832C5.68602 12.9273 5.68602 13.323 5.44194 13.5671C5.19786 13.8112 4.80214 13.8112 4.55806 13.5671L0.183058 9.19209C-0.0610194 8.94802 -0.0610194 8.55229 0.183058 8.30821L4.55806 3.93321C4.80214 3.68913 5.19786 3.68913 5.44194 3.93321Z" fill="var(--fill-0, white)"/>
<path d="M13.3081 3.93321C13.064 4.17729 13.064 4.57302 13.3081 4.81709L17.2411 8.75015L13.3081 12.6832C13.064 12.9273 13.064 13.323 13.3081 13.5671C13.5521 13.8112 13.9479 13.8112 14.1919 13.5671L18.5669 9.19209C18.811 8.94802 18.811 8.55229 18.5669 8.30821L14.1919 3.93321C13.9479 3.68913 13.5521 3.68913 13.3081 3.93321Z" fill="var(--fill-0, white)"/>
</g>
</svg>
