<svg preserveAspectRatio="none" width="100%" height="100%" overflow="visible" style="display: block;" viewBox="0 0 39.0925 39.4047" fill="none" xmlns="http://www.w3.org/2000/svg">
<g id="icon">
<path id="Vector" d="M33.4476 5.79578C30.167 2.48248 25.8104 0.450537 21.1636 0.066475C16.5168 -0.317587 11.8858 0.97151 8.10573 3.70125C4.32569 6.43098 1.64555 10.4217 0.548723 14.9534C-0.548101 19.4852 0.0106023 24.2598 2.12406 28.4159L0.0494371 38.488C0.0279107 38.5883 0.027301 38.6919 0.0476466 38.7924C0.0679921 38.8929 0.108855 38.9881 0.167679 39.0721C0.253853 39.1995 0.37686 39.2977 0.520275 39.3534C0.663689 39.4091 0.820685 39.4197 0.970295 39.3838L10.8417 37.044C14.9862 39.104 19.7271 39.6268 24.2208 38.5194C28.7145 37.4119 32.6696 34.7462 35.3823 30.9964C38.095 27.2465 39.3894 22.6559 39.0351 18.0414C38.6808 13.4268 36.7009 9.08756 33.4476 5.79578ZM30.3697 30.3616C28.0999 32.625 25.177 34.1191 22.013 34.6334C18.849 35.1476 15.6035 34.6561 12.7336 33.228L11.3577 32.5472L5.30585 33.9805L5.32377 33.9052L6.57786 27.814L5.90423 26.4846C4.43788 23.6048 3.92061 20.3347 4.42651 17.1429C4.93241 13.9511 6.43554 11.0013 8.72055 8.71601C11.5917 5.84574 15.4853 4.23331 19.5451 4.23331C23.6049 4.23331 27.4985 5.84574 30.3697 8.71601C30.3941 8.74405 30.4205 8.77039 30.4485 8.79484C33.2841 11.6725 34.867 15.5545 34.8523 19.5944C34.8375 23.6344 33.2262 27.5047 30.3697 30.3616Z" fill="var(--fill-0, white)"/>
<path id="Vector_2" d="M29.8322 25.8935C29.0905 27.0616 27.9188 28.4912 26.4462 28.846C23.8663 29.4694 19.907 28.8675 14.9802 24.2739L14.9193 24.2202C10.5873 20.2035 9.46224 16.8605 9.73456 14.209C9.88505 12.7041 11.1391 11.3425 12.1961 10.4539C12.3633 10.3113 12.5614 10.2097 12.7748 10.1574C12.9882 10.105 13.2108 10.1033 13.425 10.1524C13.6391 10.2015 13.8388 10.3 14.0081 10.4401C14.1773 10.5802 14.3115 10.7579 14.3998 10.9591L15.9942 14.5422C16.0979 14.7745 16.1363 15.0307 16.1053 15.2832C16.0744 15.5357 15.9753 15.775 15.8187 15.9754L15.0125 17.0217C14.8395 17.2377 14.7351 17.5006 14.7127 17.7765C14.6904 18.0523 14.7511 18.3285 14.8871 18.5696C15.3385 19.3615 16.4206 20.526 17.621 21.6045C18.9682 22.8228 20.4624 23.9371 21.4083 24.3169C21.6614 24.4203 21.9397 24.4456 22.2073 24.3894C22.4749 24.3332 22.7195 24.1981 22.9096 24.0016L23.8448 23.0592C24.0253 22.8813 24.2497 22.7544 24.4952 22.6915C24.7406 22.6285 24.9984 22.6318 25.2422 22.7009L29.0296 23.7759C29.2385 23.84 29.43 23.951 29.5894 24.1004C29.7489 24.2499 29.872 24.4338 29.9495 24.6381C30.0269 24.8425 30.0566 25.0618 30.0363 25.2794C30.016 25.497 29.9461 25.707 29.8322 25.8935Z" fill="var(--fill-0, white)"/>
</g>
</svg>
