<svg preserveAspectRatio="none" width="100%" height="100%" overflow="visible" style="display: block;" viewBox="0 0 133.125 133.125" fill="none" xmlns="http://www.w3.org/2000/svg">
<g id="Group">
<path id="Vector" d="M133.125 66.5625C133.125 72.2425 126.147 76.9241 124.749 82.1603C123.307 87.5741 126.957 95.1178 124.217 99.8548C121.432 104.67 113.056 105.246 109.151 109.151C105.246 113.056 104.67 121.432 99.8548 124.217C95.1178 126.957 87.5741 123.307 82.1603 124.749C76.9241 126.147 72.2425 133.125 66.5625 133.125C60.8825 133.125 56.2009 126.147 50.9647 124.749C45.5509 123.307 38.0072 126.957 33.2702 124.217C28.4555 121.432 27.8786 113.056 23.9736 109.151C20.0686 105.246 11.6928 104.67 8.90828 99.8548C6.16812 95.1178 9.81797 87.5741 8.37578 82.1603C6.97797 76.9241 0 72.2425 0 66.5625C0 60.8825 6.97797 56.2009 8.37578 50.9647C9.81797 45.5509 6.16812 38.0072 8.90828 33.2702C11.6928 28.4555 20.0686 27.8786 23.9736 23.9736C27.8786 20.0686 28.4555 11.6928 33.2702 8.90828C38.0072 6.16812 45.5509 9.81797 50.9647 8.37578C56.2009 6.97797 60.8825 0 66.5625 0C72.2425 0 76.9241 6.97797 82.1603 8.37578C87.5741 9.81797 95.1178 6.16812 99.8548 8.90828C104.67 11.6928 105.246 20.0686 109.151 23.9736C113.056 27.8786 121.432 28.4555 124.217 33.2702C126.957 38.0072 123.307 45.5509 124.749 50.9647C126.147 56.2009 133.125 60.8825 133.125 66.5625Z" fill="var(--fill-0, #926B4C)"/>
<path id="Vector_2" d="M85.7991 46.7269L60.4609 72.065L47.3259 58.9411C44.4748 56.09 39.8487 56.09 36.9977 58.9411C34.1466 61.7922 34.1466 66.4183 36.9977 69.2694L55.4244 87.6961C58.1978 90.4695 62.7019 90.4695 65.4753 87.6961L96.1162 57.0552C98.9673 54.2041 98.9673 49.578 96.1162 46.7269C93.2652 43.8758 88.6502 43.8758 85.7991 46.7269Z" fill="var(--fill-0, #FFFCEE)"/>
</g>
</svg>
