<svg preserveAspectRatio="none" width="100%" height="100%" overflow="visible" style="display: block;" viewBox="0 0 30.2143 40.2857" fill="none" xmlns="http://www.w3.org/2000/svg">
<g id="v2">
<path id="Ellipse 25" d="M15.1074 0.75C23.0365 0.750151 29.4639 7.17828 29.4639 15.1074C29.4638 17.6601 28.5729 20.4719 27.1816 23.291C25.7943 26.102 23.9363 28.8679 22.0654 31.3135C20.1962 33.7569 18.3244 35.8669 16.9199 37.3662C16.2182 38.1154 15.6345 38.7116 15.2266 39.1191C15.1851 39.1606 15.1442 39.1988 15.1064 39.2363C15.069 39.1991 15.0294 39.1602 14.9883 39.1191C14.5803 38.7116 13.9958 38.1154 13.2939 37.3662C11.8895 35.8669 10.0186 33.7569 8.14941 31.3135C6.27851 28.8678 4.42062 26.1021 3.0332 23.291C1.64185 20.4719 0.750065 17.6602 0.75 15.1074C0.75 7.17819 7.17819 0.75 15.1074 0.75Z" stroke="var(--stroke-0, white)" stroke-width="1.5"/>
<circle id="Ellipse 26" cx="15.1071" cy="15.1072" r="6.80357" stroke="var(--stroke-0, white)" stroke-width="1.5"/>
</g>
</svg>
