<svg preserveAspectRatio="none" width="100%" height="100%" overflow="visible" style="display: block;" viewBox="0 0 88 88" fill="none" xmlns="http://www.w3.org/2000/svg">
<g id="suitcase 1" clip-path="url(#clip0_0_88)">
<path id="Vector" d="M55 23.8333C52.976 23.8333 51.3333 22.1907 51.3333 20.1667V14.6667H36.6667V20.1667C36.6667 22.1907 35.024 23.8333 33 23.8333C30.976 23.8333 29.3333 22.1907 29.3333 20.1667V14.6667C29.3333 10.6223 32.6223 7.33333 36.6667 7.33333H51.3333C55.3777 7.33333 58.6667 10.6223 58.6667 14.6667V20.1667C58.6667 22.1907 57.024 23.8333 55 23.8333Z" fill="var(--fill-0, #F9CD9D)"/>
<path id="Vector_2" d="M46.6033 56.3933C45.9433 56.65 44.99 56.8333 44 56.8333C43.01 56.8333 42.0567 56.65 41.1767 56.32L-1.3113e-06 42.6067V70.5833C-1.3113e-06 76.1567 4.51 80.6667 10.0833 80.6667H77.9167C83.49 80.6667 88 76.1567 88 70.5833V42.6067L46.6033 56.3933Z" fill="var(--fill-0, #F9CD9D)"/>
<path id="Vector_3" d="M88 28.4167V36.8133L44.88 51.1867C44.5867 51.2967 44.2933 51.3333 44 51.3333C43.7067 51.3333 43.4133 51.2967 43.12 51.1867L-1.3113e-06 36.8133V28.4167C-1.3113e-06 22.8433 4.51 18.3333 10.0833 18.3333H77.9167C83.49 18.3333 88 22.8433 88 28.4167Z" fill="var(--fill-0, #F9CD9D)"/>
</g>
<defs>
<clipPath id="clip0_0_88">
<rect width="88" height="88" fill="white"/>
</clipPath>
</defs>
</svg>
