<svg preserveAspectRatio="none" width="100%" height="100%" overflow="visible" style="display: block;" viewBox="0 0 87.8555 92" fill="none" xmlns="http://www.w3.org/2000/svg">
<g id="Group">
<path id="Vector" d="M19.6735 20.9274C23.1376 20.9274 26.4378 19.1628 28.368 16.287C30.3257 13.3703 30.6788 9.55691 29.2903 6.32958C27.9376 3.18548 25.047 0.845095 21.6859 0.190171C18.2483 -0.479554 14.6307 0.645946 12.1844 3.15146C9.73659 5.6587 8.69817 9.30874 9.4544 12.7308C10.1929 16.0721 12.6023 18.9039 15.777 20.1781C17.0132 20.6743 18.3417 20.9274 19.6735 20.9274Z" fill="var(--fill-0, #F9CD9D)"/>
<g id="Group_2">
<path id="Vector_2" d="M31.7276 46.8232C31.9604 46.1777 31.7116 46.6698 31.7276 46.8232Z" fill="var(--fill-0, #F9CD9D)"/>
<path id="Vector_3" d="M39.1163 43.5453C39.2847 41.9823 39.3223 40.4135 39.346 38.843C39.3018 37.4411 39.2804 36.0209 39.0578 34.6328C38.787 32.4706 38.2772 30.3069 37.4589 28.2844L37.1327 27.4811C36.7534 26.6851 36.3536 25.9125 35.923 25.1432C35.013 23.6623 33.958 22.3009 32.7143 21.0847C32.3052 20.7081 31.9077 20.3331 31.4881 20.0053C31.0809 19.6614 30.6542 19.3667 30.2468 19.0721C29.7184 18.7278 29.1902 18.3871 28.6362 18.0848C25.8832 21.0972 21.7063 22.5376 17.6814 21.8492C15.0342 21.3965 12.5825 20.039 10.7789 18.0511C10.6314 18.1307 10.4832 18.2126 10.3348 18.3016C9.9267 18.528 9.52225 18.7993 9.10204 19.0726C8.69432 19.3673 8.26777 19.6616 7.86005 20.0053C7.44003 20.3329 7.0425 20.7077 6.63305 21.0841C5.38779 22.3 4.33169 23.6615 3.42168 25.143C2.99051 25.9121 2.59125 26.6853 2.21159 27.4813L1.88538 28.2848C1.06706 30.3078 0.558617 32.4714 0.28719 34.6338C0.064589 36.0218 0.0455583 37.442 0 38.8438C0.0197996 40.0802 0.0618978 41.3083 0.140712 42.5424C0.197419 43.4315 0.314487 44.3171 0.411754 45.2027C0.594949 46.8234 2.05954 48.0632 3.68907 47.9658C5.31801 47.8679 6.62152 46.4679 6.6071 44.8373L6.60595 44.6883C6.5996 43.9484 6.57 43.2052 6.5973 42.4659C6.63728 41.3756 6.70341 40.2939 6.79395 39.2067C6.94196 38.0956 7.06018 36.9563 7.35987 35.8731C7.70761 34.345 8.21567 32.8164 8.95672 31.4318L9.22391 30.9234L9.52033 30.4445C9.70506 30.1166 9.9342 29.833 10.1382 29.5345C10.1553 29.5126 10.1726 29.4916 10.1897 29.4697L7.77258 46.3624C7.36813 49.2941 8.03382 52.3144 9.68142 54.7776L11.2829 88.5471C11.3728 90.3252 12.8017 91.8257 14.5777 91.9854C16.3273 92.1427 17.9842 90.9745 18.4167 89.2704C18.4774 89.0307 18.5136 88.7848 18.5247 88.5376L19.6756 62.8712L20.8714 88.544C20.9601 90.3221 22.3876 91.8238 24.1634 91.9849C25.9128 92.1437 27.571 90.9772 28.0045 89.2733C28.0654 89.0336 28.1018 88.7877 28.1129 88.5405L29.6477 54.941C30.7259 53.3832 31.4396 51.5712 31.6924 49.6393C32.1826 50.3364 33.1637 50.5315 33.8813 50.0707C34.2039 49.8635 34.4467 49.5421 34.5564 49.1743C34.6158 48.9748 34.6154 48.7791 34.6274 48.5738C34.6431 48.3047 34.7052 48.0386 34.8107 47.7905C36.0698 48.2351 37.4962 47.8114 38.3097 46.7528C38.9387 47.1782 39.3531 47.8981 39.3531 48.7132V89.285C39.3531 90.1639 40.0867 90.8976 40.9655 90.8976C41.8444 90.8976 42.5779 90.1641 42.5779 89.285V48.7128C42.5774 46.3839 41.1456 44.3842 39.1163 43.5453ZM32.7485 45.076C32.3096 45.587 31.9606 46.1773 31.7276 46.8232C31.7118 46.6698 31.6951 46.5162 31.6732 46.3624L29.2801 29.6387C29.4641 29.8997 29.6609 30.1546 29.8239 30.4437L30.1204 30.9228L30.3879 31.4314C31.1288 32.8162 31.638 34.3446 31.9857 35.8729C32.2856 36.9565 32.4029 38.0952 32.5526 39.2063C32.6428 40.2935 32.7091 41.375 32.7493 42.4652C32.7768 43.2045 32.7472 43.9476 32.741 44.6875L32.7393 44.8511C32.7387 44.927 32.7433 45.0014 32.7485 45.076Z" fill="var(--fill-0, #F9CD9D)"/>
</g>
<path id="Vector_4" d="M64.0636 20.9274C67.5277 20.9274 70.8279 19.1628 72.7581 16.287C74.7157 13.3703 75.0689 9.55691 73.6802 6.32958C72.3275 3.18548 69.4369 0.845095 66.0758 0.190171C62.6382 -0.479554 59.0204 0.645946 56.5743 3.15146C54.1261 5.6587 53.0879 9.30874 53.8445 12.7308C54.583 16.0721 56.9922 18.9039 60.1671 20.1781C61.4031 20.6743 62.7318 20.9274 64.0636 20.9274Z" fill="var(--fill-0, #F9CD9D)"/>
<g id="Group_3">
<path id="Vector_5" d="M83.5192 43.4238C83.6836 41.9021 83.713 40.372 83.7359 38.843C83.6919 37.4411 83.6701 36.0209 83.4479 34.6328C83.1769 32.4708 82.6671 30.3069 81.849 28.2844L81.5228 27.4811C81.1427 26.6853 80.744 25.9125 80.3131 25.1432C79.403 23.6625 78.3479 22.3009 77.1046 21.0847C76.6953 20.7081 76.2978 20.3331 75.8783 20.0053C75.471 19.6614 75.0444 19.3667 74.6371 19.072C74.1085 18.7278 73.5802 18.3871 73.0264 18.0848C70.2733 21.0972 66.0964 22.5376 62.0717 21.8492C59.4245 21.3965 56.9728 20.039 55.1691 18.0511C55.0215 18.1307 54.8737 18.2126 54.7249 18.3016C54.3168 18.528 53.9123 18.7993 53.4923 19.0726C53.0846 19.3673 52.658 19.6616 52.2503 20.0053C51.8301 20.3329 51.4326 20.7077 51.0233 21.0841C49.7777 22.2992 48.7218 23.6617 47.8118 25.143C47.3804 25.9121 46.9817 26.6855 46.6017 27.4813L46.2755 28.2848C45.4573 30.3078 44.9483 32.4714 44.6775 34.6338C44.4551 36.0218 44.4358 37.442 44.3905 38.8438C44.4103 40.0802 44.4524 41.3081 44.5308 42.5424C44.5875 43.4315 44.705 44.3173 44.802 45.2027C44.985 46.8234 46.4496 48.0632 48.0791 47.9658C49.7083 47.8679 51.0118 46.4679 50.9976 44.8373L50.996 44.6883C50.9901 43.9484 50.9599 43.2052 50.9874 42.4659C51.0276 41.3756 51.0941 40.2939 51.184 39.2067C51.332 38.0956 51.4505 36.9563 51.7501 35.8731C52.0979 34.345 52.6058 32.8164 53.347 31.4318L53.614 30.9233L53.9106 30.4445C54.0953 30.1166 54.3243 29.833 54.5282 29.5345C54.5455 29.5126 54.5628 29.4916 54.5801 29.4697L52.1632 46.363C52.0987 46.8311 52.0614 47.3172 52.05 47.8093C50.7546 51.8642 49.6689 55.989 48.8496 60.1664C47.9138 64.9363 47.32 69.7867 47.2591 74.6508C47.2516 75.2731 47.2378 75.8584 47.6341 76.3778C47.9821 76.8336 48.5345 77.1069 49.1078 77.1069H55.256L55.7985 88.5474C55.8883 90.3256 57.3175 91.8261 59.0935 91.9858C60.8428 92.1431 62.5 90.9749 62.9325 89.2708C62.9928 89.0311 63.0294 88.7852 63.0403 88.538L63.5532 77.1069H64.8546L65.3873 88.5444C65.4759 90.3225 66.9034 91.8242 68.6792 91.9854C70.4288 92.144 72.0868 90.9776 72.5203 89.2737C72.581 89.034 72.6176 88.7881 72.6283 88.5409L73.151 77.1071H79.2347C79.7444 77.1071 80.2423 76.8909 80.5901 76.5179C80.9607 76.1214 81.0906 75.6289 81.0875 75.0983C81.0804 73.8552 81.0372 72.612 80.963 71.371C80.8154 68.9264 80.5443 66.4899 80.1748 64.0692C79.4957 59.6224 78.4873 55.2276 77.2359 50.9079C77.1078 50.4655 76.9767 50.024 76.8435 49.5832C77.2382 50.3802 78.2383 50.7125 79.0294 50.3027C79.3842 50.1188 79.6635 49.8025 79.8017 49.4275C79.8773 49.2228 79.8955 49.0179 79.9017 48.8016C79.9103 48.5142 79.9715 48.229 80.0822 47.9639C81.2085 48.021 82.2388 47.4673 82.8282 46.5758C83.861 46.8293 84.6303 47.7605 84.6303 48.8704V89.4423C84.6303 90.3209 85.3639 91.0547 86.2429 91.0547C87.122 91.0547 87.8555 90.3213 87.8555 89.4423V48.8704C87.8542 46.2192 85.999 43.9949 83.5192 43.4238ZM76.8393 47.5239C76.7165 48.0165 76.623 48.5769 76.6911 49.0848C76.5158 48.5136 76.3401 47.9569 76.1659 47.4172C76.1463 47.0675 76.114 46.7161 76.0635 46.3626L73.6704 29.6389C73.8544 29.8999 74.0514 30.1548 74.2144 30.4439L74.5106 30.923L74.7784 31.4316C75.5193 32.8166 76.0283 34.3448 76.376 35.8731C76.6767 36.9565 76.7939 38.0954 76.9429 39.2065C77.0338 40.2935 77.0998 41.3752 77.1399 42.4654C77.167 43.2047 77.1372 43.9478 77.1313 44.6877L77.1297 44.8513C77.1271 45.3011 77.2251 45.7317 77.3993 46.1235C77.1501 46.5623 76.9614 47.0344 76.8393 47.5239Z" fill="var(--fill-0, #F9CD9D)"/>
<path id="Vector_6" d="M76.6905 49.0844C76.6813 49.0142 76.5152 48.5135 76.6905 49.0844Z" fill="var(--fill-0, #F9CD9D)"/>
</g>
</g>
</svg>
