<svg preserveAspectRatio="none" width="100%" height="100%" overflow="visible" style="display: block;" viewBox="0 0 35.3759 35.3759" fill="none" xmlns="http://www.w3.org/2000/svg">
<path id="Vector 189" d="M28.2142 22.7096L33.7674 28.2627C34.5141 29.0095 34.5141 30.2202 33.7674 30.9669C29.7301 35.0042 23.3386 35.4584 18.771 32.0327L15.4673 29.5549C11.8111 26.8128 8.56317 23.5648 5.821 19.9086L3.34323 16.6049C-0.082474 12.0373 0.371756 5.6458 4.40899 1.60857C5.15573 0.861828 6.36644 0.861827 7.11318 1.60857L12.6664 7.16176C13.4853 7.9807 13.4853 9.30846 12.6664 10.1274L10.525 12.2688C10.1847 12.6091 10.1003 13.129 10.3155 13.5594C12.804 18.5364 16.8396 22.5719 21.8165 25.0604C22.2469 25.2756 22.7668 25.1912 23.1071 24.8509L25.2485 22.7096C26.0675 21.8906 27.3952 21.8906 28.2142 22.7096Z" stroke="var(--stroke-0, white)" stroke-width="2.09703"/>
</svg>
